<svg width="70" height="70" viewBox="0 0 70 70" fill="none" xmlns="http://www.w3.org/2000/svg">
<path d="M33.7629 5.11422H24.9978V13.8642H33.7629V5.11422ZM31.3491 11.4504H27.4116V7.52802H31.3491V11.4504ZM33.7629 17.9526H24.9978V26.7026H33.7629V17.9526ZM31.3491 24.2888H27.4116V20.3664H31.3491V24.2888ZM9.65517 37.972V46.7371H18.4052V37.972H9.65517ZM15.9914 44.3233H12.069V40.3858H15.9914V44.3233ZM68.7931 67.5862H61.4763V62.653C62.5145 62.4448 63.4792 61.9657 64.2726 61.2644C65.0659 60.563 65.6596 59.6643 65.9936 58.6594C66.3275 57.6546 66.3897 56.5793 66.174 55.5426C65.9583 54.5059 65.4722 53.5447 64.7651 52.7565C64.9807 52.2085 65.0932 51.6255 65.097 51.0366C65.097 49.7563 64.5884 48.5284 63.683 47.623C62.7777 46.7177 61.5498 46.2091 60.2694 46.2091C58.989 46.2091 57.7611 46.7177 56.8558 47.623C55.9504 48.5284 55.4418 49.7563 55.4418 51.0366C55.4405 51.6245 55.5479 52.2076 55.7586 52.7565C55.0561 53.5474 54.5744 54.5096 54.3622 55.546C54.1499 56.5824 54.2145 57.6564 54.5495 58.6599C54.8845 59.6633 55.4781 60.5608 56.2704 61.2618C57.0626 61.9629 58.0257 62.4427 59.0625 62.653V67.5862H50.8556V10.2737L38.0022 0H20.306V33.7931H5.59698V67.5862H1.2069C0.886808 67.5862 0.579829 67.7134 0.353492 67.9397C0.127155 68.166 0 68.473 0 68.7931C0 69.1132 0.127155 69.4202 0.353492 69.6465C0.579829 69.8728 0.886808 70 1.2069 70H68.7931C69.1132 70 69.4202 69.8728 69.6465 69.6465C69.8728 69.4202 70 69.1132 70 68.7931C70 68.473 69.8728 68.166 69.6465 67.9397C69.4202 67.7134 69.1132 67.5862 68.7931 67.5862ZM56.6487 56.7392C56.6511 56.2035 56.7729 55.675 57.0051 55.1922C57.2374 54.7095 57.5743 54.2845 57.9914 53.9483L58.8362 53.2694L58.2478 52.3491C58.0119 51.985 57.8785 51.5641 57.8616 51.1305C57.8448 50.697 57.945 50.267 58.1519 49.8856C58.3588 49.5043 58.6647 49.1857 59.0373 48.9635C59.4099 48.7413 59.8355 48.6236 60.2694 48.6228C60.9096 48.6228 61.5235 48.8772 61.9762 49.3298C62.4289 49.7825 62.6832 50.3965 62.6832 51.0366C62.6848 51.5055 62.5426 51.9636 62.2759 52.3491L61.6875 53.2694L62.5323 53.9483C63.0041 54.3328 63.3708 54.8305 63.5984 55.3949C63.8259 55.9594 63.9069 56.5722 63.8338 57.1764C63.7606 57.7806 63.5357 58.3565 63.1801 58.8503C62.8244 59.3442 62.3495 59.7399 61.7996 60.0008C61.2497 60.2616 60.6428 60.379 60.0353 60.342C59.4278 60.3051 58.8396 60.1149 58.3254 59.7894C57.8112 59.4638 57.3878 59.0133 57.0946 58.48C56.8015 57.9467 56.6481 57.3478 56.6487 56.7392ZM38.8017 32.6164L48.4418 40.3254V48.0647L38.8017 40.3556V32.6164ZM48.4418 37.2328L38.8017 29.5237V21.7996L48.4418 29.4935V37.2328ZM38.8017 43.4483L48.4418 51.1573V58.8815L38.8017 51.1724V43.4483ZM48.4418 26.4159L38.8017 18.7069V10.9677L48.4418 18.6767V26.4159ZM38.8017 54.2651L48.4418 61.9741V67.5862H38.8017V54.2651ZM48.4418 15.5841L38.8017 7.875V3.72629L48.4418 11.4353V15.5841ZM22.7198 2.41379H36.3879V67.5862H33.7629V50.6897H24.9978V67.5862H22.7198V2.41379ZM31.3491 67.5862H27.4116V53.1034H31.3491V67.5862ZM8.01078 36.2069H20.306V67.5862H8.01078V36.2069Z" fill="black"/>
</svg>
