<svg width="71" height="71" viewBox="0 0 71 71" fill="none" xmlns="http://www.w3.org/2000/svg">
<path d="M35.5 4.4375C18.3713 4.4375 4.4375 18.3713 4.4375 35.5C4.4375 52.6287 18.3713 66.5625 35.5 66.5625C52.6287 66.5625 66.5625 52.6287 66.5625 35.5C66.5625 18.3713 52.6287 4.4375 35.5 4.4375ZM61.5925 25.1458H50.8538C49.5817 18.105 47.0671 12.3067 43.7537 8.63833C51.9187 11.1529 58.4567 17.2767 61.5925 25.1458ZM63.6042 35.5C63.6042 38.0737 63.2196 40.5292 62.5983 42.8958H51.3271C51.6229 40.5292 51.8004 38.0737 51.8004 35.5C51.8004 32.9262 51.6229 30.4708 51.3271 28.1042H62.5983C63.2492 30.4708 63.6042 32.9262 63.6042 35.5ZM7.39583 35.5C7.39583 32.9262 7.78042 30.4708 8.40167 28.1042H19.6729C19.3771 30.4708 19.1996 32.9262 19.1996 35.5C19.1996 38.0737 19.3771 40.5292 19.6729 42.8958H8.40167C7.75083 40.5292 7.39583 38.0737 7.39583 35.5ZM22.1875 35.5C22.1875 32.9558 22.365 30.4708 22.6904 28.1042H34.0208V42.8958H22.6904C22.365 40.5292 22.1875 38.0442 22.1875 35.5ZM47.8363 25.1458H36.9792V7.60292C41.8604 8.81583 46.0021 15.7975 47.8363 25.1458ZM34.0208 7.60292V25.1458H23.1637C24.9683 15.7975 29.1396 8.78625 34.0208 7.60292ZM34.0208 45.8542V63.3971C29.1396 62.1842 24.9979 55.2025 23.1637 45.8542H34.0208ZM36.9792 63.3971V45.8542H47.8363C46.0317 55.2025 41.8604 62.2137 36.9792 63.3971ZM36.9792 42.8958V28.1042H48.3096C48.635 30.4708 48.8125 32.9558 48.8125 35.5C48.8125 38.0442 48.635 40.5292 48.3096 42.8958H36.9792ZM27.2463 8.63833C23.9329 12.3067 21.4183 18.105 20.1462 25.1458H9.4075C12.5433 17.2767 19.1108 11.1529 27.2463 8.63833ZM9.4075 45.8542H20.1462C21.4183 52.895 23.9329 58.6933 27.2463 62.3617C19.0813 59.8471 12.5433 53.7233 9.4075 45.8542ZM43.7537 62.3617C47.0671 58.6933 49.5817 52.895 50.8538 45.8542H61.5925C58.4567 53.7233 51.8892 59.8471 43.7537 62.3617Z" fill="black"/>
</svg>
